<mxfile host="app.diagrams.net" modified="2023-03-01T07:39:31.177Z" agent="5.0 (Macintosh; Intel Mac OS X 10_15_7) AppleWebKit/537.36 (KHTML, like Gecko) Chrome/110.0.0.0 Safari/537.36" etag="i9Tpg4BDlfc-rspB8o1K" version="20.8.23" type="github">
  <diagram name="Page-1" id="13e1069c-82ec-6db2-03f1-153e76fe0fe0">
    <mxGraphModel dx="2548" dy="1080" grid="1" gridSize="10" guides="1" tooltips="1" connect="1" arrows="1" fold="1" page="1" pageScale="1" pageWidth="1100" pageHeight="850" background="none" math="0" shadow="0">
      <root>
        <mxCell id="0" />
        <mxCell id="1" parent="0" />
        <mxCell id="-RjXNWNZFDge65mw0WvV-9" value="系统&lt;br&gt;用户" style="shape=note;whiteSpace=wrap;html=1;size=14;verticalAlign=top;align=center;spacingTop=-6;rounded=0;shadow=0;comic=0;labelBackgroundColor=none;strokeWidth=1;fontFamily=Verdana;fontSize=12" vertex="1" parent="1">
          <mxGeometry x="-1071" y="100" width="100" height="35" as="geometry" />
        </mxCell>
        <mxCell id="-RjXNWNZFDge65mw0WvV-12" value="OA系统" style="shape=umlLifeline;perimeter=lifelinePerimeter;whiteSpace=wrap;html=1;container=1;collapsible=0;recursiveResize=0;outlineConnect=0;rounded=1;shadow=0;comic=0;labelBackgroundColor=none;strokeWidth=1;fontFamily=Verdana;fontSize=12;align=center;" vertex="1" parent="1">
          <mxGeometry x="-860" y="160" width="100" height="585" as="geometry" />
        </mxCell>
        <mxCell id="-RjXNWNZFDge65mw0WvV-13" value="" style="html=1;points=[];perimeter=orthogonalPerimeter;rounded=0;shadow=0;comic=0;labelBackgroundColor=none;strokeWidth=1;fontFamily=Verdana;fontSize=12;align=center;" vertex="1" parent="-RjXNWNZFDge65mw0WvV-12">
          <mxGeometry x="45" y="80" width="10" height="160" as="geometry" />
        </mxCell>
        <mxCell id="-RjXNWNZFDge65mw0WvV-49" value="" style="html=1;points=[];perimeter=orthogonalPerimeter;rounded=0;shadow=0;comic=0;labelBackgroundColor=none;strokeWidth=1;fontFamily=Verdana;fontSize=12;align=center;" vertex="1" parent="-RjXNWNZFDge65mw0WvV-12">
          <mxGeometry x="45" y="272.5" width="10" height="40" as="geometry" />
        </mxCell>
        <mxCell id="-RjXNWNZFDge65mw0WvV-55" value="" style="html=1;points=[];perimeter=orthogonalPerimeter;rounded=0;shadow=0;comic=0;labelBackgroundColor=none;strokeWidth=1;fontFamily=Verdana;fontSize=12;align=center;" vertex="1" parent="-RjXNWNZFDge65mw0WvV-12">
          <mxGeometry x="45" y="348" width="10" height="52" as="geometry" />
        </mxCell>
        <mxCell id="-RjXNWNZFDge65mw0WvV-16" value="" style="shape=umlLifeline;perimeter=lifelinePerimeter;whiteSpace=wrap;html=1;container=1;dropTarget=0;collapsible=0;recursiveResize=0;outlineConnect=0;portConstraint=eastwest;newEdgeStyle={&quot;edgeStyle&quot;:&quot;elbowEdgeStyle&quot;,&quot;elbow&quot;:&quot;vertical&quot;,&quot;curved&quot;:0,&quot;rounded&quot;:0};participant=umlActor;" vertex="1" parent="1">
          <mxGeometry x="-1031" y="160" width="20" height="570" as="geometry" />
        </mxCell>
        <mxCell id="-RjXNWNZFDge65mw0WvV-8" value="" style="html=1;points=[];perimeter=orthogonalPerimeter;rounded=0;shadow=0;comic=0;labelBackgroundColor=none;strokeWidth=1;fontFamily=Verdana;fontSize=12;align=center;" vertex="1" parent="1">
          <mxGeometry x="-1026" y="240" width="10" height="40" as="geometry" />
        </mxCell>
        <mxCell id="-RjXNWNZFDge65mw0WvV-17" value="terra&lt;br&gt;接入系统" style="shape=note;whiteSpace=wrap;html=1;size=14;verticalAlign=top;align=center;spacingTop=-6;rounded=0;shadow=0;comic=0;labelBackgroundColor=none;strokeWidth=1;fontFamily=Verdana;fontSize=12" vertex="1" parent="1">
          <mxGeometry x="-860" y="100" width="100" height="35" as="geometry" />
        </mxCell>
        <mxCell id="-RjXNWNZFDge65mw0WvV-18" value="附件模块的关系映射表" style="shape=umlLifeline;perimeter=lifelinePerimeter;whiteSpace=wrap;html=1;container=1;collapsible=0;recursiveResize=0;outlineConnect=0;rounded=1;shadow=0;comic=0;labelBackgroundColor=none;strokeWidth=1;fontFamily=Verdana;fontSize=12;align=center;" vertex="1" parent="1">
          <mxGeometry x="-448" y="160" width="100" height="580" as="geometry" />
        </mxCell>
        <mxCell id="-RjXNWNZFDge65mw0WvV-19" value="" style="html=1;points=[];perimeter=orthogonalPerimeter;rounded=0;shadow=0;comic=0;labelBackgroundColor=none;strokeWidth=1;fontFamily=Verdana;fontSize=12;align=center;" vertex="1" parent="-RjXNWNZFDge65mw0WvV-18">
          <mxGeometry x="45" y="97" width="10" height="40" as="geometry" />
        </mxCell>
        <mxCell id="-RjXNWNZFDge65mw0WvV-20" value="存储关系&lt;br&gt;配置表" style="shape=note;whiteSpace=wrap;html=1;size=14;verticalAlign=top;align=center;spacingTop=-6;rounded=0;shadow=0;comic=0;labelBackgroundColor=none;strokeWidth=1;fontFamily=Verdana;fontSize=12" vertex="1" parent="1">
          <mxGeometry x="-448" y="100" width="100" height="35" as="geometry" />
        </mxCell>
        <mxCell id="-RjXNWNZFDge65mw0WvV-21" value="统一附件管理" style="shape=umlLifeline;perimeter=lifelinePerimeter;whiteSpace=wrap;html=1;container=1;collapsible=0;recursiveResize=0;outlineConnect=0;rounded=1;shadow=0;comic=0;labelBackgroundColor=none;strokeWidth=1;fontFamily=Verdana;fontSize=12;align=center;" vertex="1" parent="1">
          <mxGeometry x="-650" y="160" width="100" height="580" as="geometry" />
        </mxCell>
        <mxCell id="-RjXNWNZFDge65mw0WvV-22" value="" style="html=1;points=[];perimeter=orthogonalPerimeter;rounded=0;shadow=0;comic=0;labelBackgroundColor=none;strokeWidth=1;fontFamily=Verdana;fontSize=12;align=center;" vertex="1" parent="-RjXNWNZFDge65mw0WvV-21">
          <mxGeometry x="45" y="104" width="10" height="136" as="geometry" />
        </mxCell>
        <mxCell id="-RjXNWNZFDge65mw0WvV-57" value="" style="html=1;points=[];perimeter=orthogonalPerimeter;rounded=0;shadow=0;comic=0;labelBackgroundColor=none;strokeWidth=1;fontFamily=Verdana;fontSize=12;align=center;" vertex="1" parent="-RjXNWNZFDge65mw0WvV-21">
          <mxGeometry x="45" y="358" width="10" height="40" as="geometry" />
        </mxCell>
        <mxCell id="-RjXNWNZFDge65mw0WvV-23" value="统一&lt;br&gt;附件管理" style="shape=note;whiteSpace=wrap;html=1;size=14;verticalAlign=top;align=center;spacingTop=-6;rounded=0;shadow=0;comic=0;labelBackgroundColor=none;strokeWidth=1;fontFamily=Verdana;fontSize=12" vertex="1" parent="1">
          <mxGeometry x="-650" y="100" width="100" height="35" as="geometry" />
        </mxCell>
        <mxCell id="-RjXNWNZFDge65mw0WvV-24" value="terra" style="shape=umlLifeline;perimeter=lifelinePerimeter;whiteSpace=wrap;html=1;container=1;collapsible=0;recursiveResize=0;outlineConnect=0;rounded=1;shadow=0;comic=0;labelBackgroundColor=none;strokeWidth=1;fontFamily=Verdana;fontSize=12;align=center;" vertex="1" parent="1">
          <mxGeometry x="-180" y="160" width="100" height="580" as="geometry" />
        </mxCell>
        <mxCell id="-RjXNWNZFDge65mw0WvV-25" value="" style="html=1;points=[];perimeter=orthogonalPerimeter;rounded=0;shadow=0;comic=0;labelBackgroundColor=none;strokeWidth=1;fontFamily=Verdana;fontSize=12;align=center;" vertex="1" parent="-RjXNWNZFDge65mw0WvV-24">
          <mxGeometry x="45" y="166" width="10" height="56" as="geometry" />
        </mxCell>
        <mxCell id="-RjXNWNZFDge65mw0WvV-45" value="返回预签名链接、fileId" style="html=1;verticalAlign=bottom;endArrow=open;dashed=1;endSize=8;edgeStyle=elbowEdgeStyle;elbow=vertical;curved=0;rounded=0;" edge="1" parent="-RjXNWNZFDge65mw0WvV-24">
          <mxGeometry x="-0.0068" relative="1" as="geometry">
            <mxPoint x="40" y="217.32999999999998" as="sourcePoint" />
            <mxPoint x="-400" y="217" as="targetPoint" />
            <Array as="points" />
            <mxPoint as="offset" />
          </mxGeometry>
        </mxCell>
        <mxCell id="-RjXNWNZFDge65mw0WvV-51" value="" style="html=1;points=[];perimeter=orthogonalPerimeter;rounded=0;shadow=0;comic=0;labelBackgroundColor=none;strokeWidth=1;fontFamily=Verdana;fontSize=12;align=center;" vertex="1" parent="-RjXNWNZFDge65mw0WvV-24">
          <mxGeometry x="45" y="268" width="10" height="40" as="geometry" />
        </mxCell>
        <mxCell id="-RjXNWNZFDge65mw0WvV-31" value="上传Action" style="html=1;verticalAlign=bottom;endArrow=block;edgeStyle=elbowEdgeStyle;elbow=vertical;curved=0;rounded=0;" edge="1" parent="1">
          <mxGeometry width="80" relative="1" as="geometry">
            <mxPoint x="-1000" y="250" as="sourcePoint" />
            <mxPoint x="-830" y="250" as="targetPoint" />
            <Array as="points" />
            <mxPoint as="offset" />
          </mxGeometry>
        </mxCell>
        <mxCell id="-RjXNWNZFDge65mw0WvV-32" value="返回预签名链接" style="html=1;verticalAlign=bottom;endArrow=open;dashed=1;endSize=8;edgeStyle=elbowEdgeStyle;elbow=vertical;curved=0;rounded=0;" edge="1" parent="1">
          <mxGeometry x="-0.015" relative="1" as="geometry">
            <mxPoint x="-610.5" y="390" as="sourcePoint" />
            <mxPoint x="-800" y="390" as="targetPoint" />
            <Array as="points">
              <mxPoint x="-750" y="390" />
              <mxPoint x="-660" y="390" />
            </Array>
            <mxPoint as="offset" />
          </mxGeometry>
        </mxCell>
        <mxCell id="-RjXNWNZFDge65mw0WvV-34" value="bucket" style="shape=umlLifeline;perimeter=lifelinePerimeter;whiteSpace=wrap;html=1;container=1;collapsible=0;recursiveResize=0;outlineConnect=0;rounded=1;shadow=0;comic=0;labelBackgroundColor=none;strokeWidth=1;fontFamily=Verdana;fontSize=12;align=center;" vertex="1" parent="1">
          <mxGeometry x="50" y="160" width="100" height="580" as="geometry" />
        </mxCell>
        <mxCell id="-RjXNWNZFDge65mw0WvV-35" value="" style="html=1;points=[];perimeter=orthogonalPerimeter;rounded=0;shadow=0;comic=0;labelBackgroundColor=none;strokeWidth=1;fontFamily=Verdana;fontSize=12;align=center;" vertex="1" parent="-RjXNWNZFDge65mw0WvV-34">
          <mxGeometry x="45" y="174" width="10" height="40" as="geometry" />
        </mxCell>
        <mxCell id="-RjXNWNZFDge65mw0WvV-37" value="存储桶&lt;br&gt;（AWS S3、aliyun OSS、自建S3）" style="shape=note;whiteSpace=wrap;html=1;size=14;verticalAlign=top;align=center;spacingTop=-6;rounded=0;shadow=0;comic=0;labelBackgroundColor=none;strokeWidth=1;fontFamily=Verdana;fontSize=12" vertex="1" parent="1">
          <mxGeometry x="40" y="90" width="120" height="45" as="geometry" />
        </mxCell>
        <mxCell id="-RjXNWNZFDge65mw0WvV-39" value="统一文件&lt;br&gt;存储平台" style="shape=note;whiteSpace=wrap;html=1;size=14;verticalAlign=top;align=center;spacingTop=-6;rounded=0;shadow=0;comic=0;labelBackgroundColor=none;strokeWidth=1;fontFamily=Verdana;fontSize=12" vertex="1" parent="1">
          <mxGeometry x="-180" y="100" width="100" height="35" as="geometry" />
        </mxCell>
        <mxCell id="-RjXNWNZFDge65mw0WvV-42" value="根据code获取terra初始化参数" style="html=1;verticalAlign=bottom;endArrow=block;edgeStyle=elbowEdgeStyle;elbow=horizontal;curved=0;rounded=0;" edge="1" parent="1">
          <mxGeometry width="80" relative="1" as="geometry">
            <mxPoint x="-578" y="276" as="sourcePoint" />
            <mxPoint x="-408" y="276" as="targetPoint" />
            <Array as="points" />
            <mxPoint as="offset" />
          </mxGeometry>
        </mxCell>
        <mxCell id="-RjXNWNZFDge65mw0WvV-43" value="返回配置信息" style="html=1;verticalAlign=bottom;endArrow=open;dashed=1;endSize=8;edgeStyle=elbowEdgeStyle;elbow=vertical;curved=0;rounded=0;" edge="1" parent="1">
          <mxGeometry x="-0.0068" relative="1" as="geometry">
            <mxPoint x="-418" y="300" as="sourcePoint" />
            <mxPoint x="-578" y="300" as="targetPoint" />
            <Array as="points">
              <mxPoint x="-528" y="300" />
              <mxPoint x="-438" y="300" />
            </Array>
            <mxPoint as="offset" />
          </mxGeometry>
        </mxCell>
        <mxCell id="-RjXNWNZFDge65mw0WvV-44" value="初始化上传" style="html=1;verticalAlign=bottom;endArrow=block;edgeStyle=elbowEdgeStyle;elbow=horizontal;curved=0;rounded=0;" edge="1" parent="1">
          <mxGeometry width="80" relative="1" as="geometry">
            <mxPoint x="-580" y="332" as="sourcePoint" />
            <mxPoint x="-140" y="332" as="targetPoint" />
            <Array as="points" />
            <mxPoint as="offset" />
          </mxGeometry>
        </mxCell>
        <mxCell id="-RjXNWNZFDge65mw0WvV-46" value="获取预签名链接" style="html=1;verticalAlign=bottom;endArrow=block;edgeStyle=elbowEdgeStyle;elbow=horizontal;curved=0;rounded=0;" edge="1" parent="1">
          <mxGeometry width="80" relative="1" as="geometry">
            <mxPoint x="-110" y="343" as="sourcePoint" />
            <mxPoint x="80" y="343" as="targetPoint" />
            <Array as="points" />
            <mxPoint as="offset" />
          </mxGeometry>
        </mxCell>
        <mxCell id="-RjXNWNZFDge65mw0WvV-47" value="返回预签名链接" style="html=1;verticalAlign=bottom;endArrow=open;dashed=1;endSize=8;edgeStyle=elbowEdgeStyle;elbow=vertical;curved=0;rounded=0;" edge="1" parent="1">
          <mxGeometry x="-0.0068" relative="1" as="geometry">
            <mxPoint x="89" y="366" as="sourcePoint" />
            <mxPoint x="-111" y="366" as="targetPoint" />
            <Array as="points" />
            <mxPoint as="offset" />
          </mxGeometry>
        </mxCell>
        <mxCell id="-RjXNWNZFDge65mw0WvV-48" value="预上传&lt;br&gt;（不含terra入参，仅含配置code）" style="html=1;verticalAlign=bottom;endArrow=block;edgeStyle=elbowEdgeStyle;elbow=horizontal;curved=0;rounded=0;" edge="1" parent="1">
          <mxGeometry width="80" relative="1" as="geometry">
            <mxPoint x="-790" y="270" as="sourcePoint" />
            <mxPoint x="-620" y="270" as="targetPoint" />
            <Array as="points" />
            <mxPoint as="offset" />
          </mxGeometry>
        </mxCell>
        <mxCell id="-RjXNWNZFDge65mw0WvV-50" value="发起直传&lt;br&gt;（预签名链接、file）" style="html=1;verticalAlign=bottom;endArrow=block;edgeStyle=elbowEdgeStyle;elbow=vertical;curved=0;rounded=0;entryX=-0.8;entryY=0.3;entryDx=0;entryDy=0;entryPerimeter=0;" edge="1" parent="1">
          <mxGeometry x="-0.0005" width="80" relative="1" as="geometry">
            <mxPoint x="-790" y="451" as="sourcePoint" />
            <mxPoint x="-143" y="451" as="targetPoint" />
            <Array as="points" />
            <mxPoint as="offset" />
          </mxGeometry>
        </mxCell>
        <mxCell id="-RjXNWNZFDge65mw0WvV-53" value="" style="html=1;points=[];perimeter=orthogonalPerimeter;rounded=0;shadow=0;comic=0;labelBackgroundColor=none;strokeWidth=1;fontFamily=Verdana;fontSize=12;align=center;" vertex="1" parent="1">
          <mxGeometry x="-1026" y="507" width="10" height="40" as="geometry" />
        </mxCell>
        <mxCell id="-RjXNWNZFDge65mw0WvV-54" value="保存action" style="html=1;verticalAlign=bottom;endArrow=block;edgeStyle=elbowEdgeStyle;elbow=horizontal;curved=0;rounded=0;" edge="1" parent="1">
          <mxGeometry width="80" relative="1" as="geometry">
            <mxPoint x="-1000" y="513.17" as="sourcePoint" />
            <mxPoint x="-830" y="513.17" as="targetPoint" />
            <Array as="points" />
            <mxPoint as="offset" />
          </mxGeometry>
        </mxCell>
        <mxCell id="-RjXNWNZFDge65mw0WvV-56" value="（纯业务信息，不含附件保存后）&lt;br&gt;执行附件关系保存" style="html=1;verticalAlign=bottom;endArrow=block;edgeStyle=elbowEdgeStyle;elbow=horizontal;curved=0;rounded=0;" edge="1" parent="1">
          <mxGeometry width="80" relative="1" as="geometry">
            <mxPoint x="-790" y="526.17" as="sourcePoint" />
            <mxPoint x="-620" y="526.17" as="targetPoint" />
            <Array as="points" />
            <mxPoint as="offset" />
          </mxGeometry>
        </mxCell>
        <mxCell id="-RjXNWNZFDge65mw0WvV-58" value="return" style="html=1;verticalAlign=bottom;endArrow=open;dashed=1;endSize=8;edgeStyle=elbowEdgeStyle;elbow=vertical;curved=0;rounded=0;" edge="1" parent="1">
          <mxGeometry relative="1" as="geometry">
            <mxPoint x="-620" y="550" as="sourcePoint" />
            <mxPoint x="-800" y="550" as="targetPoint" />
          </mxGeometry>
        </mxCell>
        <mxCell id="-RjXNWNZFDge65mw0WvV-60" value="" style="html=1;points=[];perimeter=orthogonalPerimeter;rounded=0;shadow=0;comic=0;labelBackgroundColor=none;strokeWidth=1;fontFamily=Verdana;fontSize=12;align=center;" vertex="1" parent="1">
          <mxGeometry x="-815" y="610" width="10" height="52" as="geometry" />
        </mxCell>
        <mxCell id="-RjXNWNZFDge65mw0WvV-61" value="" style="html=1;points=[];perimeter=orthogonalPerimeter;rounded=0;shadow=0;comic=0;labelBackgroundColor=none;strokeWidth=1;fontFamily=Verdana;fontSize=12;align=center;" vertex="1" parent="1">
          <mxGeometry x="-1026" y="609" width="10" height="40" as="geometry" />
        </mxCell>
        <mxCell id="-RjXNWNZFDge65mw0WvV-62" value="预览action" style="html=1;verticalAlign=bottom;endArrow=block;edgeStyle=elbowEdgeStyle;elbow=horizontal;curved=0;rounded=0;" edge="1" parent="1">
          <mxGeometry width="80" relative="1" as="geometry">
            <mxPoint x="-1000" y="615.17" as="sourcePoint" />
            <mxPoint x="-830" y="615.17" as="targetPoint" />
            <Array as="points" />
            <mxPoint as="offset" />
          </mxGeometry>
        </mxCell>
        <mxCell id="-RjXNWNZFDge65mw0WvV-63" value="" style="html=1;points=[];perimeter=orthogonalPerimeter;rounded=0;shadow=0;comic=0;labelBackgroundColor=none;strokeWidth=1;fontFamily=Verdana;fontSize=12;align=center;" vertex="1" parent="1">
          <mxGeometry x="-605" y="619" width="10" height="40" as="geometry" />
        </mxCell>
        <mxCell id="-RjXNWNZFDge65mw0WvV-64" value="（纯业务信息，不含附件返回后）&lt;br&gt;通过业务id获取附件信息" style="html=1;verticalAlign=bottom;endArrow=block;edgeStyle=elbowEdgeStyle;elbow=horizontal;curved=0;rounded=0;" edge="1" parent="1">
          <mxGeometry width="80" relative="1" as="geometry">
            <mxPoint x="-790" y="627.17" as="sourcePoint" />
            <mxPoint x="-620" y="627.17" as="targetPoint" />
            <Array as="points" />
            <mxPoint as="offset" />
          </mxGeometry>
        </mxCell>
        <mxCell id="-RjXNWNZFDge65mw0WvV-65" value="return" style="html=1;verticalAlign=bottom;endArrow=open;dashed=1;endSize=8;edgeStyle=elbowEdgeStyle;elbow=vertical;curved=0;rounded=0;" edge="1" parent="1">
          <mxGeometry relative="1" as="geometry">
            <mxPoint x="-620" y="651" as="sourcePoint" />
            <mxPoint x="-800" y="651" as="targetPoint" />
          </mxGeometry>
        </mxCell>
        <mxCell id="-RjXNWNZFDge65mw0WvV-66" value="" style="line;strokeWidth=1;fillColor=#dae8fc;align=left;verticalAlign=middle;spacingTop=-1;spacingLeft=3;spacingRight=3;rotatable=0;labelPosition=right;points=[];portConstraint=eastwest;strokeColor=#6c8ebf;" vertex="1" parent="1">
          <mxGeometry x="-1080" y="575" width="1300" height="8" as="geometry" />
        </mxCell>
        <mxCell id="-RjXNWNZFDge65mw0WvV-67" value="" style="html=1;points=[];perimeter=orthogonalPerimeter;rounded=0;shadow=0;comic=0;labelBackgroundColor=none;strokeWidth=1;fontFamily=Verdana;fontSize=12;align=center;" vertex="1" parent="1">
          <mxGeometry x="-815" y="730" width="10" height="52" as="geometry" />
        </mxCell>
        <mxCell id="-RjXNWNZFDge65mw0WvV-68" value="" style="html=1;points=[];perimeter=orthogonalPerimeter;rounded=0;shadow=0;comic=0;labelBackgroundColor=none;strokeWidth=1;fontFamily=Verdana;fontSize=12;align=center;" vertex="1" parent="1">
          <mxGeometry x="-1026" y="729" width="10" height="40" as="geometry" />
        </mxCell>
        <mxCell id="-RjXNWNZFDge65mw0WvV-69" value="下载action" style="html=1;verticalAlign=bottom;endArrow=block;edgeStyle=elbowEdgeStyle;elbow=horizontal;curved=0;rounded=0;" edge="1" parent="1">
          <mxGeometry width="80" relative="1" as="geometry">
            <mxPoint x="-1000" y="735.17" as="sourcePoint" />
            <mxPoint x="-830" y="735.17" as="targetPoint" />
            <Array as="points" />
            <mxPoint as="offset" />
          </mxGeometry>
        </mxCell>
        <mxCell id="-RjXNWNZFDge65mw0WvV-70" value="" style="html=1;points=[];perimeter=orthogonalPerimeter;rounded=0;shadow=0;comic=0;labelBackgroundColor=none;strokeWidth=1;fontFamily=Verdana;fontSize=12;align=center;" vertex="1" parent="1">
          <mxGeometry x="-605" y="739" width="10" height="40" as="geometry" />
        </mxCell>
        <mxCell id="-RjXNWNZFDge65mw0WvV-71" value="文件id，过期时、&lt;br&gt;文件对象（是否压缩）" style="html=1;verticalAlign=bottom;endArrow=block;edgeStyle=elbowEdgeStyle;elbow=vertical;curved=0;rounded=0;" edge="1" parent="1">
          <mxGeometry width="80" relative="1" as="geometry">
            <mxPoint x="-790" y="747.17" as="sourcePoint" />
            <mxPoint x="-620" y="747.17" as="targetPoint" />
            <Array as="points" />
            <mxPoint as="offset" />
          </mxGeometry>
        </mxCell>
        <mxCell id="-RjXNWNZFDge65mw0WvV-72" value="return" style="html=1;verticalAlign=bottom;endArrow=open;dashed=1;endSize=8;edgeStyle=elbowEdgeStyle;elbow=vertical;curved=0;rounded=0;" edge="1" parent="1">
          <mxGeometry relative="1" as="geometry">
            <mxPoint x="-620" y="771" as="sourcePoint" />
            <mxPoint x="-800" y="771" as="targetPoint" />
          </mxGeometry>
        </mxCell>
        <mxCell id="-RjXNWNZFDge65mw0WvV-73" value="" style="line;strokeWidth=1;fillColor=#dae8fc;align=left;verticalAlign=middle;spacingTop=-1;spacingLeft=3;spacingRight=3;rotatable=0;labelPosition=right;points=[];portConstraint=eastwest;strokeColor=#6c8ebf;" vertex="1" parent="1">
          <mxGeometry x="-1080" y="695" width="1300" height="8" as="geometry" />
        </mxCell>
      </root>
    </mxGraphModel>
  </diagram>
</mxfile>
